<svg width="93" height="27" viewBox="0 0 93 27" fill="none" xmlns="http://www.w3.org/2000/svg">
<path d="M20.25 2.25H16.875C15.3832 2.25 13.9524 2.84263 12.8975 3.89752C11.8426 4.95242 11.25 6.38316 11.25 7.875V11.25H7.87499V15.75H11.25V24.75H15.75V15.75H19.125L20.25 11.25H15.75V7.875C15.75 7.57663 15.8685 7.29048 16.0795 7.0795C16.2905 6.86853 16.5766 6.75 16.875 6.75H20.25V2.25Z" fill="#101010"/>
<path d="M51 9C52.7902 9 54.5071 9.71116 55.773 10.977C57.0389 12.2429 57.75 13.9598 57.75 15.75V23.625H53.25V15.75C53.25 15.1533 53.013 14.581 52.591 14.159C52.169 13.7371 51.5967 13.5 51 13.5C50.4033 13.5 49.831 13.7371 49.409 14.159C48.9871 14.581 48.75 15.1533 48.75 15.75V23.625H44.25V15.75C44.25 13.9598 44.9612 12.2429 46.227 10.977C47.4929 9.71116 49.2098 9 51 9Z" fill="#101010"/>
<path d="M35.25 10.125H39.75V23.625H35.25V10.125Z" fill="#101010"/>
<path d="M37.5 6.75C38.7426 6.75 39.75 5.74264 39.75 4.5C39.75 3.25736 38.7426 2.25 37.5 2.25C36.2574 2.25 35.25 3.25736 35.25 4.5C35.25 5.74264 36.2574 6.75 37.5 6.75Z" fill="#101010"/>
<path d="M91.875 3.37496C90.7977 4.13487 89.6049 4.71608 88.3425 5.09621C87.665 4.31716 86.7645 3.76499 85.7629 3.51438C84.7613 3.26377 83.7069 3.32681 82.7423 3.69497C81.7777 4.06314 80.9495 4.71866 80.3696 5.57289C79.7897 6.42712 79.4862 7.43884 79.5 8.47121V9.59621C77.523 9.64747 75.5639 9.209 73.7974 8.31984C72.0308 7.43067 70.5116 6.11843 69.375 4.49996C69.375 4.49996 64.875 14.625 75 19.125C72.6831 20.6977 69.9231 21.4863 67.125 21.375C77.25 27 89.625 21.375 89.625 8.43746C89.624 8.1241 89.5938 7.8115 89.535 7.50371C90.6832 6.37139 91.4934 4.94176 91.875 3.37496Z" fill="#101010"/>
</svg>
